#define dabon_logo_width 64
#define dabon_logo_height 107
static unsigned char dabon_logo_bits[] = {
   0x49, 0x92, 0x04, 0x49, 0x90, 0x04, 0x00, 0x00, 0x49, 0x92, 0x04, 0x49,
   0x92, 0x04, 0x00, 0x00, 0x49, 0x92, 0x88, 0x48, 0x92, 0x04, 0x00, 0x00,
   0x49, 0x02, 0x71, 0x44, 0x92, 0x04, 0x00, 0x00, 0x49, 0x20, 0x02, 0x26,
   0x92, 0x04, 0x00, 0x00, 0x82, 0x44, 0x04, 0x11, 0x09, 0x02, 0x00, 0x00,
   0x92, 0xc4, 0x70, 0x10, 0x49, 0x02, 0x00, 0x00, 0x12, 0x89, 0x01, 0x8c,
   0x44, 0x02, 0x00, 0x00, 0x24, 0x11, 0x06, 0x43, 0x24, 0x01, 0x00, 0x00,
   0x24, 0x22, 0x70, 0x20, 0x22, 0x01, 0x00, 0x00, 0x48, 0xc4, 0x00, 0x18,
   0x91, 0x00, 0x00, 0x00, 0x88, 0x08, 0x03, 0x86, 0x88, 0x00, 0x00, 0x00,
   0x10, 0x11, 0xf8, 0x41, 0x4c, 0x00, 0x00, 0x00, 0x20, 0x63, 0x00, 0x30,
   0x26, 0x00, 0x00, 0x00, 0x40, 0x84, 0x03, 0x0e, 0x11, 0x00, 0x00, 0x00,
   0x80, 0x08, 0xfc, 0x81, 0x18, 0x00, 0x00, 0x00, 0x00, 0x21, 0x00, 0x60,
   0x04, 0x00, 0x00, 0x00, 0x00, 0x82, 0x01, 0x0c, 0x02, 0x00, 0x00, 0x00,
   0x00, 0x0c, 0xfc, 0x81, 0x01, 0x00, 0x00, 0x10, 0x00, 0x30, 0x00, 0x60,
   0x00, 0x00, 0x00, 0x1e, 0x00, 0x80, 0x03, 0x0e, 0x00, 0x00, 0xc0, 0x03,
   0x00, 0x00, 0x70, 0x00, 0x00, 0x00, 0x78, 0x00, 0x00, 0x00, 0x00, 0x00,
   0x00, 0x00, 0x0f, 0x00, 0x00, 0x00, 0x00, 0x00, 0x00, 0xe0, 0x01, 0x00,
   0x00, 0x00, 0x01, 0x04, 0x00, 0x3c, 0x00, 0x00, 0x00, 0x00, 0x01, 0x02,
   0x80, 0x07, 0x00, 0x00, 0x00, 0x00, 0x22, 0x02, 0xf0, 0x00, 0x00, 0x00,
   0x00, 0x00, 0x24, 0x01, 0x1e, 0x00, 0x00, 0x00, 0x00, 0x00, 0x78, 0xc0,
   0x03, 0x00, 0x00, 0x00, 0x00, 0x00, 0x20, 0x78, 0x20, 0x00, 0x00, 0x00,
   0x00, 0x00, 0xe0, 0x0f, 0x40, 0x00, 0x02, 0x00, 0x00, 0x00, 0x00, 0x3c,
   0x00, 0x00, 0x00, 0x00, 0x00, 0x00, 0x00, 0xe0, 0x01, 0x00, 0x00, 0x00,
   0x00, 0x00, 0x00, 0x00, 0x1f, 0x00, 0x00, 0x00, 0x00, 0x00, 0x00, 0x00,
   0x78, 0x00, 0x00, 0x00, 0x00, 0x00, 0x00, 0x00, 0xc0, 0x07, 0x00, 0x00,
   0x00, 0x00, 0x00, 0x00, 0x00, 0x1e, 0x00, 0x00, 0x00, 0x00, 0x00, 0x00,
   0x00, 0xf0, 0x00, 0x00, 0x00, 0x00, 0x00, 0x80, 0x03, 0x80, 0x07, 0x00,
   0x00, 0x00, 0x00, 0xe0, 0x01, 0x00, 0x3c, 0x00, 0x00, 0x00, 0x00, 0xf0,
   0x00, 0x00, 0xe0, 0x01, 0x00, 0x00, 0x00, 0xf0, 0x00, 0x00, 0x00, 0x0f,
   0x00, 0x00, 0x00, 0x78, 0x00, 0x00, 0x00, 0x18, 0x00, 0x00, 0x00, 0x7c,
   0x00, 0x00, 0x00, 0x00, 0x00, 0x00, 0x00, 0x3c, 0x00, 0x00, 0x00, 0x00,
   0x00, 0x00, 0x00, 0x3c, 0x00, 0x00, 0x00, 0x0e, 0x00, 0x00, 0x00, 0x3c,
   0x00, 0x80, 0xff, 0x1f, 0x00, 0x00, 0x00, 0x3c, 0xe0, 0x3f, 0xf0, 0x1f,
   0x00, 0x00, 0x00, 0xfc, 0x0f, 0x00, 0xf0, 0x1f, 0x00, 0x00, 0x00, 0x00,
   0x00, 0x00, 0xf0, 0x3f, 0x00, 0x00, 0x00, 0x00, 0x00, 0x00, 0xf0, 0x3f,
   0x00, 0x00, 0x00, 0x00, 0x00, 0x00, 0xf0, 0x3f, 0x00, 0x00, 0x00, 0x00,
   0x00, 0x00, 0xf0, 0x3f, 0x00, 0x00, 0x00, 0x00, 0x00, 0x00, 0xf0, 0x3f,
   0x00, 0x00, 0x00, 0x00, 0x00, 0x00, 0xe0, 0x3f, 0x00, 0x00, 0x00, 0x00,
   0x00, 0xff, 0xe0, 0x1f, 0x00, 0x00, 0x00, 0x00, 0x80, 0xc3, 0xc1, 0x0f,
   0x00, 0x00, 0x00, 0x00, 0xc0, 0x00, 0x03, 0x00, 0x00, 0x00, 0x00, 0x00,
   0x60, 0x00, 0x06, 0x00, 0x00, 0x00, 0x00, 0x00, 0x00, 0x00, 0x0c, 0x00,
   0x00, 0x00, 0x00, 0x00, 0x00, 0x00, 0x0c, 0x00, 0x00, 0x00, 0x00, 0x00,
   0x00, 0x00, 0x08, 0x00, 0x00, 0x00, 0x00, 0x00, 0xfe, 0x7f, 0x08, 0x00,
   0x00, 0x00, 0x00, 0x00, 0xfe, 0x7f, 0x08, 0x00, 0x00, 0x00, 0x00, 0x00,
   0x00, 0x00, 0x08, 0x00, 0x00, 0x00, 0x00, 0x00, 0x00, 0x00, 0x0c, 0x00,
   0x00, 0x00, 0x00, 0x00, 0x00, 0x00, 0x0c, 0x00, 0x00, 0x00, 0x00, 0x00,
   0x60, 0x00, 0x06, 0x00, 0x00, 0x00, 0x00, 0x00, 0xc0, 0x00, 0x03, 0x80,
   0x00, 0x00, 0x00, 0x00, 0x80, 0xc3, 0x01, 0x70, 0x00, 0x00, 0x00, 0x00,
   0x00, 0xff, 0x00, 0x1e, 0x00, 0x00, 0x00, 0x00, 0x00, 0x00, 0xc0, 0x07,
   0x00, 0x00, 0x00, 0x00, 0x00, 0x00, 0xf8, 0x03, 0x00, 0x00, 0x00, 0x00,
   0x00, 0x00, 0xff, 0x00, 0x00, 0x00, 0x00, 0x00, 0x00, 0xe0, 0x3f, 0x00,
   0x00, 0x00, 0x00, 0x00, 0x00, 0xfc, 0x1f, 0x00, 0x00, 0x00, 0x00, 0x00,
   0x80, 0xff, 0x07, 0x00, 0x00, 0x00, 0x00, 0x00, 0xf0, 0xff, 0x01, 0x00,
   0x00, 0x00, 0x00, 0x00, 0xfc, 0xff, 0x00, 0x00, 0x00, 0x00, 0x00, 0x00,
   0xf8, 0x3f, 0x00, 0x00, 0x00, 0x00, 0x00, 0x00, 0xf0, 0x0f, 0x00, 0x00,
   0x00, 0x00, 0x00, 0x00, 0xf0, 0x1f, 0x00, 0x00, 0x00, 0x00, 0x00, 0x00,
   0xe0, 0x1f, 0x00, 0x00, 0x00, 0x00, 0x00, 0x00, 0xc0, 0x3f, 0x00, 0x00,
   0x00, 0x00, 0x00, 0x00, 0x80, 0x7f, 0x00, 0x00, 0x00, 0x00, 0x00, 0x00,
   0x80, 0xff, 0x00, 0x00, 0x00, 0x00, 0x00, 0x00, 0x00, 0xff, 0x01, 0x00,
   0x00, 0x00, 0x00, 0x00, 0x00, 0xfe, 0x03, 0x00, 0x00, 0x00, 0x00, 0x00,
   0x00, 0xfc, 0x07, 0x00, 0x00, 0x00, 0x00, 0x00, 0x00, 0xfc, 0x0f, 0x00,
   0x00, 0x00, 0x00, 0x00, 0x00, 0xfc, 0x0f, 0x00, 0x00, 0x00, 0x00, 0x00,
   0x00, 0xff, 0x0f, 0x00, 0x00, 0x00, 0x00, 0x00, 0xc0, 0xff, 0x03, 0x00,
   0x00, 0x00, 0x00, 0x00, 0xe0, 0xff, 0x01, 0x00, 0x00, 0x00, 0x00, 0x00,
   0xf8, 0x7f, 0x00, 0x00, 0x00, 0x00, 0x00, 0x00, 0xfe, 0x3f, 0x00, 0x00,
   0x00, 0x00, 0x00, 0x80, 0xff, 0x0f, 0x00, 0x00, 0x00, 0x00, 0x00, 0xc0,
   0xff, 0x07, 0x00, 0x00, 0x00, 0x00, 0x00, 0xf0, 0xff, 0x01, 0x00, 0x00,
   0x00, 0x00, 0x00, 0xf0, 0xff, 0x00, 0x00, 0x00, 0x00, 0x00, 0x00, 0xf0,
   0x3f, 0x00, 0x00, 0x00, 0x00, 0x00, 0x00, 0xf0, 0x0f, 0x00, 0x00, 0x00,
   0x00, 0x00, 0x00, 0xf0, 0x07, 0x00, 0x00, 0x00, 0x00, 0x00, 0x00, 0xf0,
   0x01, 0x00, 0x00, 0x00, 0x00, 0x00, 0x00, 0xf0, 0x00, 0x00, 0x00, 0x00,
   0x00, 0x00, 0x00, 0x30, 0x00, 0x00, 0x00, 0x00, 0x00, 0x00, 0x00, 0x10,
   0x00, 0x00, 0x00, 0x00 };
