<?xml version="1.0" encoding="UTF-8" standalone="no"?>
<!-- Created with Inkscape (http://www.inkscape.org/) -->

<svg
   xmlns:dc="http://purl.org/dc/elements/1.1/"
   xmlns:cc="http://creativecommons.org/ns#"
   xmlns:rdf="http://www.w3.org/1999/02/22-rdf-syntax-ns#"
   xmlns:svg="http://www.w3.org/2000/svg"
   xmlns="http://www.w3.org/2000/svg"
   xmlns:sodipodi="http://sodipodi.sourceforge.net/DTD/sodipodi-0.dtd"
   xmlns:inkscape="http://www.inkscape.org/namespaces/inkscape"
   width="210mm"
   height="297mm"
   viewBox="0 0 744.09448819 1052.3622047"
   id="svg2"
   version="1.1"
   inkscape:version="0.91 r13725"
   sodipodi:docname="DABon symbol.svg"
   inkscape:export-filename="/home/valerio/Desktop/DABon symbol"
   inkscape:export-xdpi="150.33461"
   inkscape:export-ydpi="150.33461">
  <defs
     id="defs4" />
  <sodipodi:namedview
     id="base"
     pagecolor="#ffffff"
     bordercolor="#666666"
     borderopacity="1.0"
     inkscape:pageopacity="0.0"
     inkscape:pageshadow="2"
     inkscape:zoom="1.979899"
     inkscape:cx="327.27743"
     inkscape:cy="796.51046"
     inkscape:document-units="px"
     inkscape:current-layer="layer1"
     showgrid="false"
     inkscape:window-width="1920"
     inkscape:window-height="1047"
     inkscape:window-x="1600"
     inkscape:window-y="0"
     inkscape:window-maximized="1" />
  <metadata
     id="metadata7">
    <rdf:RDF>
      <cc:Work
         rdf:about="">
        <dc:format>image/svg+xml</dc:format>
        <dc:type
           rdf:resource="http://purl.org/dc/dcmitype/StillImage" />
        <dc:title></dc:title>
      </cc:Work>
    </rdf:RDF>
  </metadata>
  <g
     inkscape:label="Layer 1"
     inkscape:groupmode="layer"
     id="layer1">
    <path
       style="fill:none;fill-rule:evenodd;stroke:#000000;stroke-width:3;stroke-linecap:butt;stroke-linejoin:miter;stroke-opacity:1;stroke-miterlimit:4;stroke-dasharray:none"
       d="m 295.9747,358.89248 28.28427,-84.85281"
       id="path4201"
       inkscape:connector-curvature="0" />
    <path
       style="fill:none;fill-rule:evenodd;stroke:#000000;stroke-width:3;stroke-linecap:butt;stroke-linejoin:miter;stroke-miterlimit:4;stroke-dasharray:none;stroke-opacity:1"
       d="M 352.05829,358.80057 323.77402,273.94776"
       id="path4201-9"
       inkscape:connector-curvature="0" />
    <path
       style="fill:none;fill-rule:evenodd;stroke:#000000;stroke-width:1px;stroke-linecap:butt;stroke-linejoin:miter;stroke-opacity:1"
       d="m 296.07143,358.43363 41.78571,-40.53571"
       id="path4224"
       inkscape:connector-curvature="0" />
    <path
       style="fill:none;fill-rule:evenodd;stroke:#000000;stroke-width:1px;stroke-linecap:butt;stroke-linejoin:miter;stroke-opacity:1"
       d="m 309.82143,317.54077 21.96428,-18.57142"
       id="path4226"
       inkscape:connector-curvature="0" />
    <path
       style="fill:none;fill-rule:evenodd;stroke:#000000;stroke-width:1px;stroke-linecap:butt;stroke-linejoin:miter;stroke-opacity:1"
       d="m 316.07143,298.43363 21.78571,19.28572"
       id="path4228"
       inkscape:connector-curvature="0" />
    <path
       style="fill:none;fill-rule:evenodd;stroke:#000000;stroke-width:1px;stroke-linecap:butt;stroke-linejoin:miter;stroke-opacity:1"
       d="m 309.64286,316.82649 42.14286,41.42857"
       id="path4230"
       inkscape:connector-curvature="0" />
    <path
       style="fill:none;fill-rule:evenodd;stroke:#000000;stroke-width:2;stroke-linecap:butt;stroke-linejoin:miter;stroke-miterlimit:4;stroke-dasharray:none;stroke-opacity:1"
       d="m 324.28571,274.8622 0,-10.53571 -11.60714,0"
       id="path4232"
       inkscape:connector-curvature="0"
       sodipodi:nodetypes="ccc" />
    <path
       style="color:#000000;clip-rule:nonzero;display:inline;overflow:visible;visibility:visible;opacity:1;isolation:auto;mix-blend-mode:normal;color-interpolation:sRGB;color-interpolation-filters:linearRGB;solid-color:#000000;solid-opacity:1;fill:none;fill-opacity:1;fill-rule:evenodd;stroke:#000000;stroke-width:2;stroke-linecap:butt;stroke-linejoin:miter;stroke-miterlimit:4;stroke-dasharray:none;stroke-dashoffset:0;stroke-opacity:1;color-rendering:auto;image-rendering:auto;shape-rendering:auto;text-rendering:auto;enable-background:accumulate"
       id="path4236"
       sodipodi:type="arc"
       sodipodi:cx="307.32144"
       sodipodi:cy="264.32648"
       sodipodi:rx="11.964286"
       sodipodi:ry="11.964286"
       sodipodi:start="4.712389"
       sodipodi:end="1.5707963"
       d="m 307.32144,252.36219 a 11.964286,11.964286 0 0 1 11.96429,11.96429 11.964286,11.964286 0 0 1 -11.96429,11.96428"
       sodipodi:open="true" />
    <g
       id="g4320">
      <path
         sodipodi:open="true"
         d="m 251.06932,256.96861 a 8.0812206,8.0812206 0 0 1 8.08122,8.08123 8.0812206,8.0812206 0 0 1 -8.08122,8.08122"
         sodipodi:end="1.5707963"
         sodipodi:start="4.712389"
         sodipodi:ry="8.0812206"
         sodipodi:rx="8.0812206"
         sodipodi:cy="265.04984"
         sodipodi:cx="251.06932"
         sodipodi:type="arc"
         id="path4143"
         style="color:#000000;clip-rule:nonzero;display:inline;overflow:visible;visibility:visible;opacity:1;isolation:auto;mix-blend-mode:normal;color-interpolation:sRGB;color-interpolation-filters:linearRGB;solid-color:#000000;solid-opacity:1;fill:none;fill-opacity:1;fill-rule:evenodd;stroke:#000000;stroke-width:2;stroke-linecap:butt;stroke-linejoin:miter;stroke-miterlimit:2;stroke-dasharray:none;stroke-dashoffset:0;stroke-opacity:1;color-rendering:auto;image-rendering:auto;shape-rendering:auto;text-rendering:auto;enable-background:accumulate" />
      <path
         sodipodi:open="true"
         d="m 251.06932,249.89755 a 15.152288,15.152288 0 0 1 15.15229,15.15229 15.152288,15.152288 0 0 1 -15.15229,15.15228"
         sodipodi:end="1.5707963"
         sodipodi:start="4.712389"
         sodipodi:ry="15.152288"
         sodipodi:rx="15.152288"
         sodipodi:cy="265.04984"
         sodipodi:cx="251.06932"
         sodipodi:type="arc"
         id="path4143-3"
         style="color:#000000;clip-rule:nonzero;display:inline;overflow:visible;visibility:visible;opacity:1;isolation:auto;mix-blend-mode:normal;color-interpolation:sRGB;color-interpolation-filters:linearRGB;solid-color:#000000;solid-opacity:1;fill:none;fill-opacity:1;fill-rule:evenodd;stroke:#000000;stroke-width:2;stroke-linecap:butt;stroke-linejoin:miter;stroke-miterlimit:2;stroke-dasharray:none;stroke-dashoffset:0;stroke-opacity:1;color-rendering:auto;image-rendering:auto;shape-rendering:auto;text-rendering:auto;enable-background:accumulate" />
      <path
         sodipodi:open="true"
         d="m 251.06932,242.82648 a 22.223356,22.223356 0 0 1 19.24599,11.11168 22.223356,22.223356 0 0 1 0,22.22335 22.223356,22.223356 0 0 1 -19.24599,11.11168"
         sodipodi:end="1.5707963"
         sodipodi:start="4.712389"
         sodipodi:ry="22.223356"
         sodipodi:rx="22.223356"
         sodipodi:cy="265.04984"
         sodipodi:cx="251.06932"
         sodipodi:type="arc"
         id="path4143-6"
         style="color:#000000;clip-rule:nonzero;display:inline;overflow:visible;visibility:visible;opacity:1;isolation:auto;mix-blend-mode:normal;color-interpolation:sRGB;color-interpolation-filters:linearRGB;solid-color:#000000;solid-opacity:1;fill:none;fill-opacity:1;fill-rule:evenodd;stroke:#000000;stroke-width:2;stroke-linecap:butt;stroke-linejoin:miter;stroke-miterlimit:2;stroke-dasharray:none;stroke-dashoffset:0;stroke-opacity:1;color-rendering:auto;image-rendering:auto;shape-rendering:auto;text-rendering:auto;enable-background:accumulate" />
      <path
         sodipodi:open="true"
         d="m 251.06932,235.25034 a 29.7995,29.7995 0 0 1 25.80712,14.89975 29.7995,29.7995 0 0 1 0,29.79949 29.7995,29.7995 0 0 1 -25.80712,14.89975"
         sodipodi:end="1.5707963"
         sodipodi:start="4.712389"
         sodipodi:ry="29.7995"
         sodipodi:rx="29.7995"
         sodipodi:cy="265.04984"
         sodipodi:cx="251.06932"
         sodipodi:type="arc"
         id="path4143-5"
         style="color:#000000;clip-rule:nonzero;display:inline;overflow:visible;visibility:visible;opacity:1;isolation:auto;mix-blend-mode:normal;color-interpolation:sRGB;color-interpolation-filters:linearRGB;solid-color:#000000;solid-opacity:1;fill:none;fill-opacity:1;fill-rule:evenodd;stroke:#000000;stroke-width:2;stroke-linecap:butt;stroke-linejoin:miter;stroke-miterlimit:2;stroke-dasharray:none;stroke-dashoffset:0;stroke-opacity:1;color-rendering:auto;image-rendering:auto;shape-rendering:auto;text-rendering:auto;enable-background:accumulate" />
      <path
         d="m 251.06932,228.17927 a 36.870567,36.870567 0 0 1 36.87057,36.87057 36.870567,36.870567 0 0 1 -36.87057,36.87056"
         sodipodi:open="true"
         sodipodi:end="1.5707963"
         sodipodi:start="4.712389"
         sodipodi:ry="36.870567"
         sodipodi:rx="36.870567"
         sodipodi:cy="265.04984"
         sodipodi:cx="251.06932"
         sodipodi:type="arc"
         id="path4143-35"
         style="color:#000000;clip-rule:nonzero;display:inline;overflow:visible;visibility:visible;opacity:1;isolation:auto;mix-blend-mode:normal;color-interpolation:sRGB;color-interpolation-filters:linearRGB;solid-color:#000000;solid-opacity:1;fill:none;fill-opacity:1;fill-rule:evenodd;stroke:#000000;stroke-width:2;stroke-linecap:butt;stroke-linejoin:miter;stroke-miterlimit:2;stroke-dasharray:none;stroke-dashoffset:0;stroke-opacity:1;color-rendering:auto;image-rendering:auto;shape-rendering:auto;text-rendering:auto;enable-background:accumulate" />
      <path
         sodipodi:open="true"
         d="m 251.06932,221.1082 a 43.941635,43.941635 0 0 1 43.94164,43.94163 43.941635,43.941635 0 0 1 -43.94164,43.94164"
         sodipodi:end="1.5707963"
         sodipodi:start="4.712389"
         sodipodi:ry="43.941635"
         sodipodi:rx="43.941635"
         sodipodi:cy="265.04984"
         sodipodi:cx="251.06932"
         sodipodi:type="arc"
         id="path4143-62"
         style="color:#000000;clip-rule:nonzero;display:inline;overflow:visible;visibility:visible;opacity:1;isolation:auto;mix-blend-mode:normal;color-interpolation:sRGB;color-interpolation-filters:linearRGB;solid-color:#000000;solid-opacity:1;fill:none;fill-opacity:1;fill-rule:evenodd;stroke:#000000;stroke-width:2;stroke-linecap:butt;stroke-linejoin:miter;stroke-miterlimit:2;stroke-dasharray:none;stroke-dashoffset:0;stroke-opacity:1;color-rendering:auto;image-rendering:auto;shape-rendering:auto;text-rendering:auto;enable-background:accumulate" />
      <path
         d="m 251.06932,214.46861 a 50.581223,50.581223 0 0 1 50.58122,50.58123 50.581223,50.581223 0 0 1 -50.58122,50.58122"
         sodipodi:open="true"
         sodipodi:end="1.5707963"
         sodipodi:start="4.712389"
         sodipodi:ry="50.581223"
         sodipodi:rx="50.581223"
         sodipodi:cy="265.04984"
         sodipodi:cx="251.06932"
         sodipodi:type="arc"
         id="path4143-1"
         style="color:#000000;clip-rule:nonzero;display:inline;overflow:visible;visibility:visible;opacity:1;isolation:auto;mix-blend-mode:normal;color-interpolation:sRGB;color-interpolation-filters:linearRGB;solid-color:#000000;solid-opacity:1;fill:none;fill-opacity:1;fill-rule:evenodd;stroke:#000000;stroke-width:2;stroke-linecap:butt;stroke-linejoin:miter;stroke-miterlimit:2;stroke-dasharray:none;stroke-dashoffset:0;stroke-opacity:1;color-rendering:auto;image-rendering:auto;shape-rendering:auto;text-rendering:auto;enable-background:accumulate" />
    </g>
    <path
       style="fill:none;fill-rule:evenodd;stroke:#000000;stroke-width:2;stroke-linecap:butt;stroke-linejoin:miter;stroke-opacity:1;stroke-miterlimit:4;stroke-dasharray:none"
       d="m 360,357.71935 8.21429,-82.14286"
       id="path4253"
       inkscape:connector-curvature="0" />
    <path
       style="fill:none;fill-rule:evenodd;stroke:#000000;stroke-width:1px;stroke-linecap:butt;stroke-linejoin:miter;stroke-opacity:1"
       d="m 367.5,275.75506 c -25.89286,0.35714 -25,18.57143 -25,18.57143 0,0 12.32143,-13.03572 25.17857,-10.89286 z"
       id="path4255"
       inkscape:connector-curvature="0" />
    <path
       style="color:#000000;clip-rule:nonzero;display:inline;overflow:visible;visibility:visible;opacity:1;isolation:auto;mix-blend-mode:normal;color-interpolation:sRGB;color-interpolation-filters:linearRGB;solid-color:#000000;solid-opacity:1;fill:none;fill-opacity:1;fill-rule:evenodd;stroke:#000000;stroke-width:2;stroke-linecap:butt;stroke-linejoin:miter;stroke-miterlimit:4;stroke-dasharray:none;stroke-dashoffset:0;stroke-opacity:1;color-rendering:auto;image-rendering:auto;shape-rendering:auto;text-rendering:auto;enable-background:accumulate"
       d="m 343.33603,291.69295 c 0.17992,-1.35627 1.06963,-3.80491 1.92886,-5.30857 2.70949,-4.74162 7.83061,-7.99476 14.6602,-9.31273 1.96863,-0.37991 6.84031,-0.8573 7.01061,-0.687 0.054,0.054 -0.0398,1.49298 -0.20849,3.19772 l -0.30669,3.09952 -2.06998,0.0172 c -3.4506,0.0287 -6.54067,0.83816 -10.52613,2.75742 -3.12254,1.50372 -6.42882,3.703 -9.16258,6.09481 -0.65459,0.5727 -1.24753,1.04128 -1.31765,1.04128 -0.0701,0 -0.0738,-0.40484 -0.008,-0.89965 z"
       id="path4257"
       inkscape:connector-curvature="0" />
    <path
       style="color:#000000;clip-rule:nonzero;display:inline;overflow:visible;visibility:visible;opacity:1;isolation:auto;mix-blend-mode:normal;color-interpolation:sRGB;color-interpolation-filters:linearRGB;solid-color:#000000;solid-opacity:1;fill:none;fill-opacity:1;fill-rule:evenodd;stroke:#000000;stroke-width:2;stroke-linecap:butt;stroke-linejoin:miter;stroke-miterlimit:4;stroke-dasharray:none;stroke-dashoffset:0;stroke-opacity:1;color-rendering:auto;image-rendering:auto;shape-rendering:auto;text-rendering:auto;enable-background:accumulate"
       d="m 345.04841,289.5424 c 0,-0.54392 1.51578,-3.28614 2.50341,-4.52896 2.57256,-3.2373 7.0891,-5.74695 12.22874,-6.79499 1.4802,-0.30183 5.83757,-0.80886 5.9657,-0.69417 0.0401,0.0359 -0.008,0.9174 -0.1066,1.95897 -0.12035,1.27026 -0.26192,1.946 -0.42998,2.0524 -0.1378,0.0872 -0.86279,0.15986 -1.61109,0.16136 -1.77116,0.004 -4.00099,0.40016 -6.07932,1.08128 -3.31419,1.08614 -8.29742,3.80615 -11.62264,6.34401 -0.46663,0.35614 -0.84822,0.54513 -0.84822,0.4201 z"
       id="path4259"
       inkscape:connector-curvature="0" />
    <path
       style="color:#000000;clip-rule:nonzero;display:inline;overflow:visible;visibility:visible;opacity:1;isolation:auto;mix-blend-mode:normal;color-interpolation:sRGB;color-interpolation-filters:linearRGB;solid-color:#000000;solid-opacity:1;fill:none;fill-opacity:1;fill-rule:evenodd;stroke:#000000;stroke-width:2;stroke-linecap:butt;stroke-linejoin:miter;stroke-miterlimit:4;stroke-dasharray:none;stroke-dashoffset:0;stroke-opacity:1;color-rendering:auto;image-rendering:auto;shape-rendering:auto;text-rendering:auto;enable-background:accumulate"
       d="m 348.36311,285.76224 c 2.45892,-2.95503 6.07645,-5.09864 10.4353,-6.18354 1.17356,-0.2921 5.05867,-0.91467 5.70789,-0.91467 0.0581,0 0.0632,0.42188 0.0114,0.9375 l -0.0942,0.9375 -1.7141,0.12231 c -3.95257,0.28202 -8.53253,1.92777 -13.12784,4.71731 -1.45998,0.88627 -1.69936,0.96164 -1.21836,0.38359 z"
       id="path4261"
       inkscape:connector-curvature="0" />
    <path
       style="fill:none;fill-rule:evenodd;stroke:#000000;stroke-width:1px;stroke-linecap:butt;stroke-linejoin:miter;stroke-opacity:1"
       d="m 362.5,340.57649 c 0,0 26.75163,-7.82466 23.75,11.78571 -2.64649,17.29018 -26.42857,4.28571 -26.42857,4.28571 z"
       id="path4263"
       inkscape:connector-curvature="0"
       sodipodi:nodetypes="cscc" />
    <path
       style="color:#000000;clip-rule:nonzero;display:inline;overflow:visible;visibility:visible;opacity:1;isolation:auto;mix-blend-mode:normal;color-interpolation:sRGB;color-interpolation-filters:linearRGB;solid-color:#000000;solid-opacity:1;fill:none;fill-opacity:1;fill-rule:evenodd;stroke:#000000;stroke-width:2;stroke-linecap:butt;stroke-linejoin:miter;stroke-miterlimit:4;stroke-dasharray:none;stroke-dashoffset:0;stroke-opacity:1;color-rendering:auto;image-rendering:auto;shape-rendering:auto;text-rendering:auto;enable-background:accumulate"
       d="m 373.45741,360.61873 c -2.87586,-0.3586 -7.56162,-1.77617 -10.82794,-3.27575 l -1.4368,-0.65965 0.59447,-5.92929 c 0.32696,-3.26111 0.73436,-6.77305 0.90534,-7.8043 l 0.31086,-1.875 1.18187,-0.29639 c 3.14475,-0.78864 7.89695,-1.30447 10.41678,-1.1307 7.28522,0.5024 10.632,3.11059 11.25962,8.77478 0.27094,2.44516 -0.57021,6.49702 -1.72322,8.30085 -0.703,1.09981 -2.20329,2.49311 -3.19712,2.96913 -1.84309,0.88279 -4.84907,1.25485 -7.48386,0.92632 z"
       id="path4265"
       inkscape:connector-curvature="0" />
    <path
       style="color:#000000;clip-rule:nonzero;display:inline;overflow:visible;visibility:visible;opacity:1;isolation:auto;mix-blend-mode:normal;color-interpolation:sRGB;color-interpolation-filters:linearRGB;solid-color:#000000;solid-opacity:1;fill:none;fill-opacity:1;fill-rule:evenodd;stroke:#000000;stroke-width:2;stroke-linecap:butt;stroke-linejoin:miter;stroke-miterlimit:4;stroke-dasharray:none;stroke-dashoffset:0;stroke-opacity:1;color-rendering:auto;image-rendering:auto;shape-rendering:auto;text-rendering:auto;enable-background:accumulate"
       d="m 373.97699,359.5453 c -0.73661,-0.0693 -2.10268,-0.30683 -3.03572,-0.52779 -3.10108,-0.73439 -8.57143,-2.76157 -8.57143,-3.17638 0,-0.93671 1.34256,-12.72935 1.54128,-13.53814 0.0762,-0.31004 0.34212,-0.43124 1.46341,-0.66694 7.72448,-1.62374 14.04035,-1.01024 17.03339,1.65457 1.5973,1.42213 2.60207,4.36782 2.38106,6.98055 -0.15025,1.7763 -0.70226,4.07587 -1.26286,5.26089 -0.28436,0.60109 -0.87966,1.35759 -1.59458,2.02635 -1.29189,1.2085 -2.57336,1.74694 -4.5617,1.9167 -0.63839,0.0545 -1.3616,0.12096 -1.60714,0.14767 -0.24554,0.0267 -1.04911,-0.008 -1.78571,-0.0775 z"
       id="path4267"
       inkscape:connector-curvature="0" />
    <path
       style="color:#000000;clip-rule:nonzero;display:inline;overflow:visible;visibility:visible;opacity:1;isolation:auto;mix-blend-mode:normal;color-interpolation:sRGB;color-interpolation-filters:linearRGB;solid-color:#000000;solid-opacity:1;fill:none;fill-opacity:1;fill-rule:evenodd;stroke:#000000;stroke-width:2;stroke-linecap:butt;stroke-linejoin:miter;stroke-miterlimit:4;stroke-dasharray:none;stroke-dashoffset:0;stroke-opacity:1;color-rendering:auto;image-rendering:auto;shape-rendering:auto;text-rendering:auto;enable-background:accumulate"
       d="m 373.2627,358.36461 c -2.17015,-0.35102 -5.95781,-1.47573 -8.48214,-2.51869 l -1.25,-0.51645 0.0566,-0.78808 c 0.0691,-0.96173 0.8539,-8.05816 1.12705,-10.19044 l 0.19795,-1.54522 1.63064,-0.28898 c 2.77422,-0.49164 4.21983,-0.62729 6.71992,-0.63057 5.44628,-0.007 8.71569,1.45278 9.81136,4.38122 0.796,2.1275 0.81815,4.08637 0.0785,6.94174 -0.42649,1.64641 -0.68697,2.15353 -1.61671,3.1475 -1.00712,1.07669 -2.08422,1.66583 -3.53635,1.93427 -1.00084,0.18502 -3.78117,0.22828 -4.73681,0.0737 z"
       id="path4269"
       inkscape:connector-curvature="0" />
    <path
       style="color:#000000;clip-rule:nonzero;display:inline;overflow:visible;visibility:visible;opacity:1;isolation:auto;mix-blend-mode:normal;color-interpolation:sRGB;color-interpolation-filters:linearRGB;solid-color:#000000;solid-opacity:1;fill:none;fill-opacity:1;fill-rule:evenodd;stroke:#000000;stroke-width:2;stroke-linecap:butt;stroke-linejoin:miter;stroke-miterlimit:4;stroke-dasharray:none;stroke-dashoffset:0;stroke-opacity:1;color-rendering:auto;image-rendering:auto;shape-rendering:auto;text-rendering:auto;enable-background:accumulate"
       d="m 372.25829,357.05606 c -3.23536,-0.73113 -7.56702,-2.24001 -7.56702,-2.63587 0,-0.41394 1.06778,-9.92801 1.15966,-10.33279 0.22504,-0.99135 8.94921,-1.4489 11.96534,-0.62753 1.73391,0.47218 2.8326,1.1224 3.60276,2.13214 0.7278,0.95421 0.96048,1.71536 1.07558,3.51845 0.0933,1.46114 -0.067,2.70356 -0.57368,4.44642 -0.33187,1.14158 -1.54056,2.60911 -2.58978,3.14438 -1.46763,0.74873 -4.6281,0.90727 -7.07286,0.3548 z"
       id="path4271"
       inkscape:connector-curvature="0" />
    <path
       style="color:#000000;clip-rule:nonzero;display:inline;overflow:visible;visibility:visible;opacity:1;isolation:auto;mix-blend-mode:normal;color-interpolation:sRGB;color-interpolation-filters:linearRGB;solid-color:#000000;solid-opacity:1;fill:none;fill-opacity:1;fill-rule:evenodd;stroke:#000000;stroke-width:2;stroke-linecap:butt;stroke-linejoin:miter;stroke-miterlimit:4;stroke-dasharray:none;stroke-dashoffset:0;stroke-opacity:1;color-rendering:auto;image-rendering:auto;shape-rendering:auto;text-rendering:auto;enable-background:accumulate"
       d="m 372.99484,356.09222 c -1.50974,-0.29273 -4.60139,-1.19093 -6.06992,-1.76347 l -1.06992,-0.41713 0.0534,-0.70415 c 0.15033,-1.98302 0.95296,-8.39176 1.06472,-8.50141 0.32277,-0.31669 3.50356,-0.53881 6.70576,-0.46826 2.95417,0.0651 3.56909,0.12882 4.48859,0.46519 2.11756,0.77465 3.012,1.9453 3.22528,4.22122 0.13927,1.48624 -0.24186,3.8075 -0.80708,4.91541 -0.45141,0.88484 -1.61448,1.90169 -2.44424,2.13695 -1.13084,0.32063 -3.78212,0.3802 -5.14657,0.11565 z"
       id="path4273"
       inkscape:connector-curvature="0" />
    <path
       style="color:#000000;clip-rule:nonzero;display:inline;overflow:visible;visibility:visible;opacity:1;isolation:auto;mix-blend-mode:normal;color-interpolation:sRGB;color-interpolation-filters:linearRGB;solid-color:#000000;solid-opacity:1;fill:none;fill-opacity:1;fill-rule:evenodd;stroke:#000000;stroke-width:2;stroke-linecap:butt;stroke-linejoin:miter;stroke-miterlimit:4;stroke-dasharray:none;stroke-dashoffset:0;stroke-opacity:1;color-rendering:auto;image-rendering:auto;shape-rendering:auto;text-rendering:auto;enable-background:accumulate"
       d="m 372.19127,354.806 c -0.54018,-0.13978 -1.92634,-0.54838 -3.08036,-0.908 -1.79989,-0.56088 -2.0975,-0.70651 -2.09321,-1.02426 0.0153,-1.13636 0.87846,-7.12888 1.05176,-7.30219 0.14327,-0.14326 1.48627,-0.2053 4.44038,-0.20511 3.65042,2.3e-4 4.36666,0.0457 5.1888,0.32941 2.20191,0.75984 2.96029,2.34132 2.52101,5.25714 -0.33382,2.21571 -0.99338,3.35021 -2.26371,3.89375 -0.76326,0.32657 -4.44579,0.30055 -5.76467,-0.0407 z"
       id="path4275"
       inkscape:connector-curvature="0" />
    <path
       style="color:#000000;clip-rule:nonzero;display:inline;overflow:visible;visibility:visible;opacity:1;isolation:auto;mix-blend-mode:normal;color-interpolation:sRGB;color-interpolation-filters:linearRGB;solid-color:#000000;solid-opacity:1;fill:none;fill-opacity:1;fill-rule:evenodd;stroke:#000000;stroke-width:2;stroke-linecap:butt;stroke-linejoin:miter;stroke-miterlimit:4;stroke-dasharray:none;stroke-dashoffset:0;stroke-opacity:1;color-rendering:auto;image-rendering:auto;shape-rendering:auto;text-rendering:auto;enable-background:accumulate"
       d="m 373.2627,353.9032 c -0.71127,-0.0904 -4.85025,-1.29878 -5.02661,-1.46755 -0.10643,-0.10184 0.42141,-4.58447 0.64913,-5.51269 l 0.0986,-0.40179 3.96981,0.004 c 3.4686,0.003 4.06,0.0453 4.6841,0.33192 0.94923,0.43588 1.28176,0.8428 1.50583,1.84264 0.14017,0.62547 0.12449,1.19023 -0.0629,2.26338 -0.26649,1.52648 -0.62668,2.31265 -1.24056,2.70762 -0.38567,0.24815 -3.29246,0.39582 -4.57741,0.23254 z"
       id="path4277"
       inkscape:connector-curvature="0" />
    <path
       style="color:#000000;clip-rule:nonzero;display:inline;overflow:visible;visibility:visible;opacity:1;isolation:auto;mix-blend-mode:normal;color-interpolation:sRGB;color-interpolation-filters:linearRGB;solid-color:#000000;solid-opacity:1;fill:none;fill-opacity:1;fill-rule:evenodd;stroke:#000000;stroke-width:2;stroke-linecap:butt;stroke-linejoin:miter;stroke-miterlimit:4;stroke-dasharray:none;stroke-dashoffset:0;stroke-opacity:1;color-rendering:auto;image-rendering:auto;shape-rendering:auto;text-rendering:auto;enable-background:accumulate"
       d="m 373.11764,352.76969 c -0.82934,-0.17476 -3.78351,-1.05316 -3.78351,-1.12501 0,-0.21331 0.38684,-3.18131 0.46413,-3.56101 l 0.1,-0.49107 3.15545,10e-4 c 3.39658,0.001 4.33026,0.15022 4.75734,0.75996 0.45589,0.65088 0.24503,3.38477 -0.31782,4.12054 -0.26216,0.34271 -3.20759,0.54169 -4.37555,0.29559 z"
       id="path4279"
       inkscape:connector-curvature="0" />
    <path
       style="color:#000000;clip-rule:nonzero;display:inline;overflow:visible;visibility:visible;opacity:1;isolation:auto;mix-blend-mode:normal;color-interpolation:sRGB;color-interpolation-filters:linearRGB;solid-color:#000000;solid-opacity:1;fill:none;fill-opacity:1;fill-rule:evenodd;stroke:#000000;stroke-width:2;stroke-linecap:butt;stroke-linejoin:miter;stroke-miterlimit:4;stroke-dasharray:none;stroke-dashoffset:0;stroke-opacity:1;color-rendering:auto;image-rendering:auto;shape-rendering:auto;text-rendering:auto;enable-background:accumulate"
       d="m 373.79841,351.76124 c -0.24553,-0.0377 -1.06919,-0.23887 -1.83035,-0.447 -1.52572,-0.41718 -1.52732,-0.41966 -1.26932,-1.98057 l 0.11069,-0.66964 2.52128,0.0211 c 1.3867,0.0116 2.76235,0.0742 3.05699,0.13895 0.53522,0.11771 0.53569,0.11894 0.50687,1.33807 -0.0159,0.67113 -0.0962,1.28155 -0.17857,1.35649 -0.17998,0.16377 -2.28911,0.33912 -2.91759,0.24257 z"
       id="path4281"
       inkscape:connector-curvature="0" />
    <path
       style="color:#000000;clip-rule:nonzero;display:inline;overflow:visible;visibility:visible;opacity:1;isolation:auto;mix-blend-mode:normal;color-interpolation:sRGB;color-interpolation-filters:linearRGB;solid-color:#000000;solid-opacity:1;fill:none;fill-opacity:1;fill-rule:evenodd;stroke:#000000;stroke-width:2;stroke-linecap:butt;stroke-linejoin:miter;stroke-miterlimit:4;stroke-dasharray:none;stroke-dashoffset:0;stroke-opacity:1;color-rendering:auto;image-rendering:auto;shape-rendering:auto;text-rendering:auto;enable-background:accumulate"
       d="m 372.50377,350.34262 c -0.46652,-0.14345 -0.84821,-0.33875 -0.84821,-0.43399 0,-0.18862 3.35394,-0.24542 3.82468,-0.0648 0.15535,0.0596 0.28246,0.26051 0.28246,0.44643 0,0.29951 -0.13737,0.33662 -1.20536,0.3256 -0.66294,-0.007 -1.58705,-0.12981 -2.05357,-0.27326 z"
       id="path4283"
       inkscape:connector-curvature="0" />
    <path
       style="color:#000000;clip-rule:nonzero;display:inline;overflow:visible;visibility:visible;opacity:1;isolation:auto;mix-blend-mode:normal;color-interpolation:sRGB;color-interpolation-filters:linearRGB;solid-color:#000000;solid-opacity:1;fill:none;fill-opacity:1;fill-rule:evenodd;stroke:#000000;stroke-width:4;stroke-linecap:butt;stroke-linejoin:miter;stroke-miterlimit:4;stroke-dasharray:none;stroke-dashoffset:0;stroke-opacity:1;color-rendering:auto;image-rendering:auto;shape-rendering:auto;text-rendering:auto;enable-background:accumulate"
       id="path4285"
       sodipodi:type="arc"
       sodipodi:cx="401.51782"
       sodipodi:cy="319.05865"
       sodipodi:rx="18.125"
       sodipodi:ry="18.125"
       sodipodi:start="5.2223049"
       sodipodi:end="4.1980952"
       d="m 410.3647,303.23942 a 18.125,18.125 0 0 1 8.6972,20.37125 18.125,18.125 0 0 1 -17.5044,13.57294 18.125,18.125 0 0 1 -17.56366,-13.49618 18.125,18.125 0 0 1 8.60793,-20.40913"
       sodipodi:open="true" />
    <rect
       style="color:#000000;clip-rule:nonzero;display:inline;overflow:visible;visibility:visible;opacity:1;isolation:auto;mix-blend-mode:normal;color-interpolation:sRGB;color-interpolation-filters:linearRGB;solid-color:#000000;solid-opacity:1;fill:#000000;fill-opacity:1;fill-rule:evenodd;stroke:#000000;stroke-width:2;stroke-linecap:butt;stroke-linejoin:miter;stroke-miterlimit:4;stroke-dasharray:none;stroke-dashoffset:0;stroke-opacity:1;color-rendering:auto;image-rendering:auto;shape-rendering:auto;text-rendering:auto;enable-background:accumulate"
       id="rect4291"
       width="3.2142901"
       height="29.642843"
       x="400"
       y="294.68362" />
    <path
       style="fill:#000000;fill-opacity:1;fill-rule:evenodd;stroke:#000000;stroke-width:1px;stroke-linecap:butt;stroke-linejoin:miter;stroke-opacity:1"
       d="m 486.68751,280.75796 18.92857,-0.35714 -37.49999,58.57144 -24.64286,-21.42858 -28.92857,48.92857 23.57142,-71.07142 27.85714,21.42857 z"
       id="path4329"
       inkscape:connector-curvature="0"
       sodipodi:nodetypes="cccccccc" />
  </g>
</svg>
