#define dab_radio_icon_width 64
#define dab_radio_icon_height 64
static unsigned char dab_radio_icon_bits[] = {
   0x00, 0x00, 0x00, 0x00, 0x00, 0x00, 0x00, 0x00, 0x00, 0x00, 0x00, 0x00,
   0x00, 0x00, 0x00, 0x00, 0x00, 0x00, 0x00, 0x00, 0x00, 0x00, 0x00, 0x00,
   0x00, 0x00, 0x00, 0x00, 0x00, 0x00, 0x00, 0x00, 0x00, 0x00, 0x00, 0x00,
   0x00, 0x00, 0x00, 0x00, 0x00, 0x00, 0x00, 0x00, 0x00, 0x00, 0x00, 0x00,
   0x00, 0x00, 0x00, 0x00, 0x00, 0x00, 0x00, 0x00, 0x00, 0x00, 0x00, 0x00,
   0x00, 0x00, 0x00, 0x00, 0x00, 0x00, 0x00, 0x00, 0x00, 0x00, 0x00, 0x00,
   0x00, 0x00, 0x00, 0x00, 0x00, 0x00, 0x00, 0x00, 0x00, 0x00, 0xc0, 0xff,
   0xff, 0x1f, 0x00, 0x00, 0x00, 0x00, 0x40, 0x00, 0x00, 0x10, 0x00, 0x00,
   0x00, 0x00, 0x40, 0x00, 0x00, 0x10, 0x00, 0x00, 0x00, 0x00, 0x40, 0xf8,
   0x07, 0x10, 0x00, 0x00, 0x00, 0x00, 0x40, 0x08, 0x04, 0x10, 0x00, 0x00,
   0x00, 0x00, 0x40, 0x08, 0x04, 0x10, 0xff, 0x1f, 0x00, 0x00, 0x60, 0x08,
   0x84, 0x10, 0xff, 0x1f, 0x00, 0x00, 0x60, 0x88, 0xc7, 0x11, 0x03, 0x18,
   0x00, 0x00, 0x50, 0x08, 0xe4, 0x13, 0x03, 0x18, 0x00, 0x00, 0x50, 0x08,
   0xc4, 0x11, 0x03, 0x18, 0x00, 0x00, 0x48, 0x08, 0x84, 0x10, 0x03, 0x18,
   0x00, 0x00, 0x48, 0x88, 0x07, 0x10, 0x03, 0x18, 0x00, 0x00, 0x44, 0x08,
   0x04, 0x10, 0x06, 0x0c, 0x00, 0x00, 0x44, 0x08, 0x04, 0x10, 0x0e, 0x0e,
   0x00, 0x00, 0x42, 0x08, 0x84, 0x10, 0xfc, 0x07, 0x00, 0x00, 0x42, 0x88,
   0xc7, 0x11, 0xf0, 0x03, 0x00, 0x00, 0x42, 0x08, 0xe4, 0x13, 0x00, 0x00,
   0x00, 0x00, 0x41, 0x08, 0xc4, 0x11, 0x00, 0x10, 0x00, 0x00, 0x41, 0x08,
   0x84, 0x10, 0x00, 0x1e, 0x00, 0x80, 0x40, 0xf8, 0x07, 0x10, 0x80, 0x0f,
   0x00, 0x80, 0x40, 0x00, 0x00, 0x10, 0xf0, 0x03, 0x00, 0x40, 0x40, 0x00,
   0x00, 0x10, 0x7c, 0x03, 0x00, 0x40, 0x40, 0xc0, 0x1f, 0x10, 0x0f, 0x03,
   0x00, 0x20, 0x40, 0x70, 0x70, 0x10, 0x0f, 0x03, 0x00, 0x20, 0x40, 0x18,
   0xc0, 0x10, 0x7c, 0x03, 0x00, 0x10, 0x40, 0x8c, 0x84, 0x11, 0xe0, 0x03,
   0x00, 0x10, 0x40, 0x86, 0x24, 0x13, 0x80, 0x0f, 0x00, 0x10, 0x40, 0x82,
   0x24, 0x12, 0x00, 0x1e, 0x00, 0x08, 0x40, 0x93, 0x24, 0x16, 0x00, 0x10,
   0x00, 0x08, 0x40, 0x91, 0xa4, 0x14, 0x00, 0x00, 0x00, 0x04, 0x40, 0x91,
   0xa4, 0x14, 0x00, 0x00, 0x00, 0x04, 0x40, 0x91, 0xa4, 0x14, 0xff, 0x1f,
   0x00, 0x02, 0x40, 0x91, 0xa4, 0x14, 0xff, 0x1f, 0x00, 0x02, 0x40, 0x91,
   0xa4, 0x14, 0x63, 0x18, 0x00, 0x01, 0x40, 0x91, 0xa4, 0x14, 0x63, 0x18,
   0x00, 0x01, 0x40, 0x93, 0xa4, 0x16, 0x63, 0x18, 0x80, 0x00, 0x40, 0x82,
   0x24, 0x12, 0x77, 0x18, 0x80, 0x00, 0x40, 0x86, 0x24, 0x13, 0xfe, 0x1c,
   0x00, 0x00, 0x40, 0x8c, 0x84, 0x11, 0x8e, 0x0f, 0x00, 0x00, 0x40, 0x18,
   0xc0, 0x10, 0x00, 0x07, 0x00, 0x00, 0x40, 0x70, 0x70, 0x10, 0x00, 0x00,
   0x00, 0x00, 0x40, 0xc0, 0x1f, 0x10, 0x00, 0x00, 0x00, 0x00, 0x40, 0x00,
   0x00, 0x10, 0x00, 0x00, 0x00, 0x00, 0xc0, 0xff, 0xff, 0x1f, 0x00, 0x00,
   0x00, 0x00, 0x00, 0x00, 0x1f, 0x00, 0x00, 0x00, 0x00, 0x00, 0x00, 0x00,
   0x1f, 0x00, 0x00, 0x00, 0x00, 0x00, 0x00, 0x00, 0x00, 0x00, 0x00, 0x00,
   0x00, 0x00, 0x00, 0x00, 0x00, 0x00, 0x00, 0x00, 0x00, 0x00, 0x00, 0x00,
   0x00, 0x00, 0x00, 0x00, 0x00, 0x00, 0x00, 0x00, 0x00, 0x00, 0x00, 0x00,
   0x00, 0x00, 0x00, 0x00, 0x00, 0x00, 0x00, 0x00, 0x00, 0x00, 0x00, 0x00,
   0x00, 0x00, 0x00, 0x00, 0x00, 0x00, 0x00, 0x00, 0x00, 0x00, 0x00, 0x00,
   0x00, 0x00, 0x00, 0x00, 0x00, 0x00, 0x00, 0x00 };
