#define dab_radio_icon_width 64
#define dab_radio_icon_height 64
static unsigned char dab_radio_icon_bits[] = {
   0x00, 0x00, 0x00, 0x00, 0x00, 0x00, 0x00, 0x00, 0x00, 0x00, 0x00, 0x00,
   0x00, 0x00, 0x00, 0x00, 0x00, 0x00, 0x00, 0x00, 0x00, 0x00, 0x00, 0x00,
   0x00, 0x00, 0x00, 0x00, 0x00, 0x00, 0x00, 0x00, 0x00, 0x00, 0x00, 0x00,
   0x00, 0x00, 0x00, 0x00, 0x00, 0x00, 0x00, 0x00, 0x00, 0x00, 0x00, 0x00,
   0x00, 0x00, 0x00, 0x00, 0x00, 0x00, 0x00, 0x00, 0x00, 0x00, 0x00, 0x00,
   0x00, 0xc0, 0x00, 0x00, 0x00, 0x00, 0x00, 0x00, 0x00, 0x30, 0x00, 0x00,
   0x00, 0x00, 0x00, 0x00, 0x00, 0x0c, 0x00, 0x00, 0x00, 0x00, 0x00, 0x00,
   0x00, 0x03, 0x00, 0x00, 0x00, 0x00, 0x00, 0x00, 0xc0, 0x00, 0x00, 0x00,
   0x00, 0x00, 0x00, 0x00, 0x38, 0x00, 0x00, 0x00, 0x00, 0x00, 0x00, 0x00,
   0x06, 0x00, 0x00, 0x00, 0x00, 0x00, 0x00, 0x80, 0x01, 0x00, 0x00, 0x00,
   0x00, 0x00, 0x00, 0x60, 0x00, 0x00, 0x00, 0x00, 0x00, 0x00, 0x00, 0x18,
   0x00, 0x00, 0x00, 0x00, 0x00, 0x00, 0x00, 0x07, 0x00, 0x00, 0x00, 0x00,
   0x00, 0x00, 0xc0, 0x00, 0x00, 0x00, 0x00, 0x00, 0x00, 0x00, 0x30, 0x00,
   0x00, 0x00, 0x00, 0x00, 0x00, 0x00, 0x0c, 0x00, 0x00, 0x00, 0x00, 0x00,
   0x00, 0x00, 0x03, 0x00, 0x00, 0x00, 0x00, 0x00, 0x00, 0xfc, 0xff, 0xff,
   0xff, 0xff, 0x3f, 0x00, 0x00, 0x04, 0x00, 0x00, 0x00, 0x00, 0x20, 0x00,
   0x00, 0x04, 0x00, 0x00, 0xc0, 0x3f, 0x20, 0x00, 0x00, 0x04, 0x00, 0x00,
   0x70, 0xe0, 0x20, 0x00, 0x00, 0x04, 0x00, 0x00, 0x18, 0x80, 0x21, 0x00,
   0x00, 0xe4, 0xff, 0x3f, 0x0c, 0x00, 0x23, 0x00, 0x00, 0x24, 0x00, 0x20,
   0xc6, 0x3f, 0x26, 0x00, 0x00, 0x24, 0x00, 0x20, 0x02, 0x00, 0x24, 0x00,
   0x00, 0x24, 0x00, 0x20, 0x03, 0x00, 0x2c, 0x00, 0x00, 0x24, 0x22, 0x22,
   0xf9, 0xff, 0x29, 0x00, 0x00, 0x24, 0x22, 0x22, 0x01, 0x00, 0xe8, 0x00,
   0x00, 0x24, 0x22, 0x22, 0x01, 0x00, 0xe8, 0x00, 0x00, 0xe4, 0xff, 0x3f,
   0xf9, 0xff, 0xe9, 0x00, 0x00, 0x04, 0x00, 0x00, 0x01, 0x00, 0xe8, 0x00,
   0x00, 0x04, 0x00, 0x00, 0x03, 0x00, 0xec, 0x00, 0x00, 0x04, 0x04, 0x04,
   0xf2, 0xff, 0x24, 0x00, 0x00, 0x04, 0x0e, 0x0e, 0x06, 0x00, 0x26, 0x00,
   0x00, 0x04, 0x1f, 0x1f, 0x8c, 0x3f, 0x23, 0x00, 0x00, 0x04, 0x0e, 0x0e,
   0x18, 0x80, 0x21, 0x00, 0x00, 0x04, 0x04, 0x04, 0x70, 0xe0, 0x20, 0x00,
   0x00, 0x04, 0x00, 0x00, 0xc0, 0x3f, 0x20, 0x00, 0x00, 0x04, 0x00, 0x00,
   0x00, 0x00, 0x20, 0x00, 0x00, 0xfc, 0xff, 0xff, 0xff, 0xff, 0x3f, 0x00,
   0x00, 0x00, 0x00, 0x00, 0x00, 0x00, 0x00, 0x00, 0x00, 0x00, 0x00, 0x00,
   0x00, 0x00, 0x00, 0x00, 0x00, 0x00, 0x00, 0x00, 0x00, 0x00, 0x00, 0x00,
   0x00, 0x80, 0x3f, 0x00, 0x03, 0x7e, 0x00, 0x00, 0x00, 0x80, 0xff, 0x00,
   0x03, 0xfe, 0x01, 0x00, 0x00, 0x80, 0xc1, 0x81, 0x07, 0xc6, 0x01, 0x00,
   0x00, 0x80, 0x81, 0x83, 0x07, 0x86, 0x01, 0x00, 0x00, 0x80, 0x01, 0xc3,
   0x0c, 0x86, 0x01, 0x00, 0x00, 0x80, 0x01, 0xc3, 0x0c, 0xfe, 0x00, 0x00,
   0x00, 0x80, 0x01, 0xc3, 0x0c, 0xfe, 0x00, 0x00, 0x00, 0x80, 0x01, 0x63,
   0x18, 0x86, 0x01, 0x00, 0x00, 0x80, 0x01, 0xe3, 0x1f, 0x06, 0x03, 0x00,
   0x00, 0x80, 0x81, 0xf1, 0x3f, 0x06, 0x03, 0x00, 0x00, 0x80, 0xe1, 0x31,
   0x30, 0x86, 0x03, 0x00, 0x00, 0x80, 0xff, 0x30, 0x30, 0xfe, 0x01, 0x00,
   0x00, 0x80, 0x3f, 0x18, 0x60, 0xfe, 0x00, 0x00, 0x00, 0x00, 0x00, 0x00,
   0x00, 0x00, 0x00, 0x00, 0x00, 0x00, 0x00, 0x00, 0x00, 0x00, 0x00, 0x00,
   0x00, 0x00, 0x00, 0x00, 0x00, 0x00, 0x00, 0x00 };
