#define sd_card_icon_width 64
#define sd_card_icon_height 64
static unsigned char sd_card_icon_bits[] = {
   0x00, 0x00, 0x00, 0x00, 0x00, 0x00, 0x00, 0x00, 0x00, 0x00, 0x00, 0x00,
   0x00, 0x00, 0x00, 0x00, 0x00, 0x00, 0x00, 0x00, 0x00, 0x00, 0x00, 0x00,
   0x00, 0x00, 0x00, 0x00, 0x00, 0x00, 0x00, 0x00, 0x00, 0x00, 0x00, 0x00,
   0x00, 0x00, 0x00, 0x00, 0x00, 0x00, 0x00, 0x00, 0x00, 0x00, 0x00, 0x00,
   0x00, 0x00, 0x00, 0x00, 0x00, 0x00, 0x00, 0x00, 0x00, 0x00, 0x00, 0x00,
   0x00, 0x00, 0x00, 0x00, 0x00, 0x00, 0x00, 0x00, 0x00, 0x00, 0x00, 0x00,
   0x00, 0x00, 0x00, 0x00, 0x00, 0x00, 0x00, 0x00, 0x00, 0xfc, 0xff, 0xff,
   0xff, 0x3f, 0x00, 0x00, 0x00, 0x02, 0x00, 0x00, 0x00, 0x40, 0x00, 0x00,
   0x00, 0x01, 0x00, 0x00, 0x00, 0xc0, 0x00, 0x00, 0x00, 0x01, 0x00, 0x00,
   0x00, 0x80, 0x00, 0x00, 0x00, 0x01, 0x00, 0x00, 0x00, 0x80, 0x00, 0x00,
   0x00, 0x01, 0x00, 0xfc, 0x01, 0x00, 0x01, 0x00, 0x00, 0x01, 0x00, 0xfc,
   0x03, 0x00, 0x07, 0x00, 0x00, 0x01, 0x00, 0xfc, 0x03, 0x00, 0xf8, 0x00,
   0x00, 0x01, 0x00, 0xfc, 0x07, 0x00, 0x80, 0x00, 0x00, 0x01, 0x00, 0x0c,
   0x07, 0x00, 0x80, 0x00, 0x00, 0x01, 0x00, 0x0c, 0x0c, 0xf0, 0x9f, 0x00,
   0x00, 0x01, 0x00, 0x0c, 0x00, 0x00, 0x80, 0x00, 0x00, 0x01, 0x00, 0x0c,
   0x00, 0x00, 0x80, 0x00, 0x00, 0x01, 0x00, 0x0c, 0x00, 0x00, 0x80, 0x00,
   0x00, 0x01, 0x00, 0x08, 0x00, 0xf0, 0x9f, 0x00, 0x00, 0x01, 0x00, 0x08,
   0x00, 0x00, 0x80, 0x00, 0x00, 0x01, 0x00, 0x18, 0x00, 0x00, 0x80, 0x00,
   0x00, 0x01, 0x00, 0x18, 0x00, 0x00, 0x80, 0x00, 0x00, 0x01, 0x00, 0x18,
   0x00, 0xf0, 0x9f, 0x00, 0x00, 0x01, 0xc0, 0x1b, 0x00, 0x00, 0x80, 0x00,
   0x00, 0x01, 0xe0, 0x1f, 0x00, 0x00, 0x80, 0x00, 0x00, 0x01, 0xe0, 0x1f,
   0x00, 0x00, 0x80, 0x00, 0x00, 0x01, 0xe0, 0x1f, 0x00, 0xf0, 0x9f, 0x00,
   0x00, 0x01, 0xe0, 0x3f, 0x00, 0x00, 0x80, 0x00, 0x00, 0x01, 0xe0, 0x3f,
   0x00, 0x00, 0x80, 0x00, 0x00, 0x01, 0xe0, 0x3f, 0x00, 0x00, 0x80, 0x00,
   0x00, 0x01, 0x80, 0x3f, 0x00, 0xf0, 0x9f, 0x00, 0x00, 0x01, 0x00, 0x00,
   0x00, 0x00, 0x80, 0x00, 0x00, 0x01, 0x00, 0x00, 0x00, 0x00, 0x80, 0x00,
   0x00, 0x01, 0x00, 0x00, 0x00, 0x00, 0x40, 0x00, 0x00, 0x02, 0x00, 0x00,
   0x00, 0x00, 0x40, 0x00, 0x00, 0xfc, 0xff, 0xff, 0xff, 0xff, 0x3f, 0x00,
   0x00, 0x00, 0x00, 0x00, 0x00, 0x00, 0x00, 0x00, 0x00, 0x00, 0x00, 0x00,
   0x00, 0x00, 0x00, 0x00, 0x00, 0x00, 0x00, 0x00, 0x00, 0x00, 0x00, 0x00,
   0x00, 0x00, 0x00, 0x00, 0x00, 0x00, 0x00, 0x00, 0x00, 0xc0, 0x81, 0xc3,
   0x0f, 0x7e, 0x00, 0x00, 0x00, 0xc0, 0xc3, 0xc3, 0x1f, 0xff, 0x00, 0x00,
   0x00, 0xc0, 0xc3, 0xc3, 0x38, 0xc1, 0x01, 0x00, 0x00, 0xc0, 0x46, 0xc3,
   0x30, 0x80, 0x01, 0x00, 0x00, 0xc0, 0x66, 0xc3, 0x30, 0xc0, 0x01, 0x00,
   0x00, 0xc0, 0x64, 0xc3, 0x38, 0x7c, 0x00, 0x00, 0x00, 0xc0, 0x3c, 0xc3,
   0x1f, 0xfc, 0x00, 0x00, 0x00, 0xc0, 0x3c, 0xc3, 0x0f, 0xc0, 0x01, 0x00,
   0x00, 0xc0, 0x18, 0xc3, 0x00, 0x80, 0x01, 0x00, 0x00, 0xc0, 0x18, 0xc3,
   0x00, 0x80, 0x01, 0x00, 0x00, 0xc0, 0x00, 0xc3, 0x00, 0xc1, 0x01, 0x00,
   0x00, 0xc0, 0x00, 0xc3, 0x00, 0xff, 0x00, 0x00, 0x00, 0xc0, 0x00, 0xc3,
   0x00, 0x3e, 0x00, 0x00, 0x00, 0x00, 0x00, 0x00, 0x00, 0x00, 0x00, 0x00,
   0x00, 0x00, 0x00, 0x00, 0x00, 0x00, 0x00, 0x00, 0x00, 0x00, 0x00, 0x00,
   0x00, 0x00, 0x00, 0x00, 0x00, 0x00, 0x00, 0x00, 0x00, 0x00, 0x00, 0x00,
   0x00, 0x00, 0x00, 0x00, 0x00, 0x00, 0x00, 0x00 };
