#define sd_card_icon_width 64
#define sd_card_icon_height 64
static unsigned char sd_card_icon_bits[] = {
   0x00, 0x00, 0x00, 0x00, 0x00, 0x00, 0x00, 0x00, 0x00, 0x00, 0x00, 0x00,
   0x00, 0x00, 0x00, 0x00, 0x00, 0x00, 0x00, 0x00, 0x00, 0x00, 0x00, 0x00,
   0x00, 0x00, 0x00, 0x00, 0x00, 0x00, 0x00, 0x00, 0x00, 0x00, 0x00, 0x00,
   0x00, 0x00, 0x00, 0x00, 0x00, 0x00, 0x00, 0x00, 0x00, 0x00, 0x00, 0x00,
   0x00, 0x00, 0x00, 0x00, 0x00, 0x00, 0x00, 0x00, 0x00, 0x00, 0x00, 0x00,
   0x00, 0x00, 0x00, 0x00, 0x00, 0xf0, 0xff, 0xff, 0xff, 0x00, 0x00, 0x00,
   0x00, 0x08, 0x00, 0x00, 0x00, 0x01, 0x00, 0x00, 0x00, 0x04, 0x00, 0x00,
   0x00, 0x02, 0x00, 0x00, 0x00, 0x04, 0x00, 0x00, 0x00, 0x02, 0x00, 0x00,
   0x00, 0x04, 0x00, 0x00, 0x00, 0x02, 0x00, 0x00, 0x00, 0x04, 0x00, 0x00,
   0x00, 0x02, 0x00, 0x00, 0x00, 0x04, 0x00, 0x00, 0x00, 0xc2, 0xff, 0x07,
   0x00, 0x04, 0x00, 0x00, 0x00, 0xc2, 0xff, 0x07, 0x00, 0x04, 0x00, 0x00,
   0x00, 0xc2, 0x01, 0x00, 0x00, 0x04, 0x00, 0x00, 0x00, 0x82, 0x0f, 0x00,
   0x00, 0x04, 0x00, 0x00, 0x00, 0x02, 0x3e, 0x00, 0x00, 0x04, 0x00, 0x00,
   0x00, 0x02, 0xf0, 0x00, 0x00, 0x04, 0x00, 0x00, 0x00, 0x02, 0xf0, 0x00,
   0x00, 0x04, 0x00, 0xc0, 0x0f, 0x02, 0x3c, 0x00, 0x00, 0x04, 0x00, 0xe0,
   0x0f, 0x82, 0x07, 0x00, 0x00, 0x04, 0x00, 0xe0, 0x1f, 0xc2, 0x01, 0x00,
   0x00, 0x04, 0x00, 0xe0, 0x1f, 0xc2, 0xff, 0x07, 0x00, 0x04, 0x00, 0xe0,
   0x1f, 0xc2, 0xff, 0x07, 0x00, 0x84, 0xff, 0xc0, 0x1f, 0x02, 0x00, 0x00,
   0x00, 0x84, 0xff, 0xff, 0x1f, 0x02, 0x00, 0x00, 0x00, 0x84, 0x07, 0xfc,
   0x1f, 0x02, 0x00, 0x00, 0x00, 0x84, 0x07, 0x00, 0x1e, 0x02, 0x00, 0x00,
   0x00, 0x84, 0x07, 0x00, 0x00, 0xc2, 0xff, 0x07, 0x00, 0x84, 0x07, 0x00,
   0x00, 0xc2, 0xff, 0x07, 0x00, 0x84, 0x0f, 0x00, 0x00, 0xc2, 0x30, 0x00,
   0x00, 0x04, 0x0f, 0x00, 0x00, 0xc2, 0x30, 0x00, 0x00, 0x04, 0x1c, 0x00,
   0x00, 0xc2, 0x30, 0x00, 0x00, 0x04, 0x10, 0x00, 0x00, 0xc2, 0x39, 0x00,
   0x00, 0x04, 0x00, 0x00, 0x00, 0x82, 0x1f, 0x00, 0x00, 0x04, 0x00, 0x00,
   0x00, 0x02, 0x0f, 0x00, 0x00, 0x04, 0x00, 0x00, 0x00, 0x02, 0x00, 0x00,
   0x00, 0x04, 0x00, 0x00, 0x00, 0x02, 0x00, 0x00, 0x00, 0x04, 0x00, 0x00,
   0x00, 0x82, 0x01, 0x03, 0x00, 0x04, 0x00, 0x00, 0x00, 0xc2, 0x00, 0x06,
   0x00, 0x04, 0x00, 0x00, 0x00, 0xc2, 0x18, 0x06, 0x00, 0x04, 0x00, 0x00,
   0x00, 0xc2, 0x18, 0x06, 0x00, 0x04, 0x10, 0x11, 0x11, 0xc2, 0x18, 0x06,
   0x00, 0x04, 0x10, 0x11, 0x11, 0xc2, 0x18, 0x06, 0x00, 0x18, 0x10, 0x11,
   0x11, 0xc2, 0x3d, 0x07, 0x00, 0x70, 0x10, 0x11, 0x11, 0x82, 0xf7, 0x03,
   0x00, 0x80, 0x11, 0x11, 0x11, 0x02, 0xe7, 0x01, 0x00, 0x00, 0x11, 0x11,
   0x11, 0x02, 0x00, 0x00, 0x00, 0x00, 0x11, 0x11, 0x11, 0x02, 0x00, 0x00,
   0x00, 0x00, 0x12, 0x11, 0x11, 0x02, 0x00, 0x00, 0x00, 0x00, 0x12, 0x11,
   0x11, 0x02, 0x00, 0x00, 0x00, 0x00, 0x02, 0x00, 0x00, 0x02, 0x00, 0x00,
   0x00, 0x00, 0x02, 0x00, 0x80, 0x01, 0x00, 0x00, 0x00, 0x00, 0xfe, 0xff,
   0x7f, 0x00, 0x00, 0x00, 0x00, 0x00, 0x00, 0x00, 0x00, 0x00, 0x00, 0x00,
   0x00, 0x00, 0x00, 0x00, 0x00, 0x00, 0x00, 0x00, 0x00, 0x00, 0x00, 0x00,
   0x00, 0x00, 0x00, 0x00, 0x00, 0x00, 0x00, 0x00, 0x00, 0x00, 0x00, 0x00,
   0x00, 0x00, 0x00, 0x00, 0x00, 0x00, 0x00, 0x00, 0x00, 0x00, 0x00, 0x00,
   0x00, 0x00, 0x00, 0x00, 0x00, 0x00, 0x00, 0x00, 0x00, 0x00, 0x00, 0x00,
   0x00, 0x00, 0x00, 0x00, 0x00, 0x00, 0x00, 0x00 };
